<mxfile host="app.diagrams.net" modified="2023-11-11T05:18:36.356Z" agent="Mozilla/5.0 (Windows NT 10.0; Win64; x64) AppleWebKit/537.36 (KHTML, like Gecko) Chrome/118.0.0.0 Safari/537.36" etag="g-iZpTht7bSF2ogw-5bo" version="22.1.0" type="device">
  <diagram name="Страница — 1" id="xkcikHY9jTozTiK7CPeo">
    <mxGraphModel dx="2021" dy="760" grid="1" gridSize="10" guides="1" tooltips="1" connect="1" arrows="1" fold="1" page="1" pageScale="1" pageWidth="827" pageHeight="1169" math="0" shadow="0">
      <root>
        <mxCell id="0" />
        <mxCell id="1" parent="0" />
        <mxCell id="MuY1nDVodc8Vqoouy3pU-1" value="&lt;font style=&quot;font-size: 18px;&quot;&gt;S3&lt;/font&gt;" style="shape=cylinder3;whiteSpace=wrap;html=1;boundedLbl=1;backgroundOutline=1;size=15;" parent="1" vertex="1">
          <mxGeometry x="80" y="740" width="120" height="150" as="geometry" />
        </mxCell>
        <mxCell id="rpmEFAIcFxhYf_J9Vj70-1" value="FastApi backend" style="swimlane;startSize=20;horizontal=1;containerType=tree;" vertex="1" parent="1">
          <mxGeometry x="200" y="150" width="400" height="420" as="geometry" />
        </mxCell>
        <mxCell id="rpmEFAIcFxhYf_J9Vj70-2" value="" style="edgeStyle=elbowEdgeStyle;elbow=vertical;sourcePerimeterSpacing=0;targetPerimeterSpacing=0;startArrow=none;endArrow=none;rounded=0;curved=0;" edge="1" parent="rpmEFAIcFxhYf_J9Vj70-1" source="rpmEFAIcFxhYf_J9Vj70-3" target="rpmEFAIcFxhYf_J9Vj70-4">
          <mxGeometry relative="1" as="geometry" />
        </mxCell>
        <mxCell id="rpmEFAIcFxhYf_J9Vj70-3" value="Get object from s3 or download youtube video" style="whiteSpace=wrap;html=1;treeFolding=1;treeMoving=1;newEdgeStyle={&quot;edgeStyle&quot;:&quot;elbowEdgeStyle&quot;,&quot;startArrow&quot;:&quot;none&quot;,&quot;endArrow&quot;:&quot;none&quot;};" vertex="1" parent="rpmEFAIcFxhYf_J9Vj70-1">
          <mxGeometry x="130" y="50" width="140" height="50" as="geometry" />
        </mxCell>
        <mxCell id="rpmEFAIcFxhYf_J9Vj70-4" value="Decode video, get frames with certain rate" style="whiteSpace=wrap;html=1;treeFolding=1;treeMoving=1;newEdgeStyle={&quot;edgeStyle&quot;:&quot;elbowEdgeStyle&quot;,&quot;startArrow&quot;:&quot;none&quot;,&quot;endArrow&quot;:&quot;none&quot;};" vertex="1" parent="rpmEFAIcFxhYf_J9Vj70-1">
          <mxGeometry x="130" y="140" width="140" height="40" as="geometry" />
        </mxCell>
        <mxCell id="rpmEFAIcFxhYf_J9Vj70-5" value="Face detection, face cropper" style="whiteSpace=wrap;html=1;treeFolding=1;treeMoving=1;newEdgeStyle={&quot;edgeStyle&quot;:&quot;elbowEdgeStyle&quot;,&quot;startArrow&quot;:&quot;none&quot;,&quot;endArrow&quot;:&quot;none&quot;};" vertex="1" parent="rpmEFAIcFxhYf_J9Vj70-1">
          <mxGeometry x="130" y="210" width="140" height="40" as="geometry" />
        </mxCell>
        <mxCell id="rpmEFAIcFxhYf_J9Vj70-25" value="Deepfake face classification" style="whiteSpace=wrap;html=1;treeFolding=1;treeMoving=1;newEdgeStyle={&quot;edgeStyle&quot;:&quot;elbowEdgeStyle&quot;,&quot;startArrow&quot;:&quot;none&quot;,&quot;endArrow&quot;:&quot;none&quot;};" vertex="1" parent="rpmEFAIcFxhYf_J9Vj70-1">
          <mxGeometry x="130" y="280" width="140" height="40" as="geometry" />
        </mxCell>
        <mxCell id="rpmEFAIcFxhYf_J9Vj70-26" value="Send classification result and rendered image" style="rounded=0;whiteSpace=wrap;html=1;" vertex="1" parent="rpmEFAIcFxhYf_J9Vj70-1">
          <mxGeometry x="130" y="360" width="140" height="40" as="geometry" />
        </mxCell>
        <mxCell id="rpmEFAIcFxhYf_J9Vj70-30" value="" style="endArrow=none;html=1;rounded=0;" edge="1" parent="rpmEFAIcFxhYf_J9Vj70-1" source="rpmEFAIcFxhYf_J9Vj70-5">
          <mxGeometry width="50" height="50" relative="1" as="geometry">
            <mxPoint x="150" y="230" as="sourcePoint" />
            <mxPoint x="200" y="180" as="targetPoint" />
          </mxGeometry>
        </mxCell>
        <mxCell id="rpmEFAIcFxhYf_J9Vj70-31" value="" style="endArrow=none;html=1;rounded=0;" edge="1" parent="rpmEFAIcFxhYf_J9Vj70-1" source="rpmEFAIcFxhYf_J9Vj70-25">
          <mxGeometry width="50" height="50" relative="1" as="geometry">
            <mxPoint x="150" y="300" as="sourcePoint" />
            <mxPoint x="200" y="250" as="targetPoint" />
          </mxGeometry>
        </mxCell>
        <mxCell id="rpmEFAIcFxhYf_J9Vj70-32" value="" style="endArrow=none;html=1;rounded=0;exitX=0.5;exitY=0;exitDx=0;exitDy=0;" edge="1" parent="rpmEFAIcFxhYf_J9Vj70-1" source="rpmEFAIcFxhYf_J9Vj70-26">
          <mxGeometry width="50" height="50" relative="1" as="geometry">
            <mxPoint x="150" y="370" as="sourcePoint" />
            <mxPoint x="200" y="320" as="targetPoint" />
          </mxGeometry>
        </mxCell>
        <mxCell id="rpmEFAIcFxhYf_J9Vj70-11" value="Streamlit UI" style="swimlane;startSize=20;horizontal=1;containerType=tree;" vertex="1" parent="1">
          <mxGeometry x="-300" y="150" width="400" height="420" as="geometry" />
        </mxCell>
        <mxCell id="rpmEFAIcFxhYf_J9Vj70-12" value="" style="edgeStyle=elbowEdgeStyle;elbow=vertical;sourcePerimeterSpacing=0;targetPerimeterSpacing=0;startArrow=none;endArrow=none;rounded=0;curved=0;" edge="1" parent="rpmEFAIcFxhYf_J9Vj70-11" source="rpmEFAIcFxhYf_J9Vj70-13" target="rpmEFAIcFxhYf_J9Vj70-14">
          <mxGeometry relative="1" as="geometry" />
        </mxCell>
        <mxCell id="rpmEFAIcFxhYf_J9Vj70-13" value="Get uploaded video" style="whiteSpace=wrap;html=1;treeFolding=1;treeMoving=1;newEdgeStyle={&quot;edgeStyle&quot;:&quot;elbowEdgeStyle&quot;,&quot;startArrow&quot;:&quot;none&quot;,&quot;endArrow&quot;:&quot;none&quot;};" vertex="1" parent="rpmEFAIcFxhYf_J9Vj70-11">
          <mxGeometry x="240" y="50" width="120" height="40" as="geometry" />
        </mxCell>
        <mxCell id="rpmEFAIcFxhYf_J9Vj70-14" value="Save in s3" style="whiteSpace=wrap;html=1;treeFolding=1;treeMoving=1;newEdgeStyle={&quot;edgeStyle&quot;:&quot;elbowEdgeStyle&quot;,&quot;startArrow&quot;:&quot;none&quot;,&quot;endArrow&quot;:&quot;none&quot;};" vertex="1" parent="rpmEFAIcFxhYf_J9Vj70-11">
          <mxGeometry x="240" y="150" width="120" height="40" as="geometry" />
        </mxCell>
        <mxCell id="rpmEFAIcFxhYf_J9Vj70-17" value="Get youtube link" style="whiteSpace=wrap;html=1;treeFolding=1;treeMoving=1;newEdgeStyle={&quot;edgeStyle&quot;:&quot;elbowEdgeStyle&quot;,&quot;startArrow&quot;:&quot;none&quot;,&quot;endArrow&quot;:&quot;none&quot;};" vertex="1" parent="rpmEFAIcFxhYf_J9Vj70-11">
          <mxGeometry x="40" y="150" width="120" height="40" as="geometry" />
        </mxCell>
        <mxCell id="rpmEFAIcFxhYf_J9Vj70-19" value="Send object name to backend" style="whiteSpace=wrap;html=1;treeFolding=1;treeMoving=1;newEdgeStyle={&quot;edgeStyle&quot;:&quot;elbowEdgeStyle&quot;,&quot;startArrow&quot;:&quot;none&quot;,&quot;endArrow&quot;:&quot;none&quot;};" vertex="1" parent="rpmEFAIcFxhYf_J9Vj70-11">
          <mxGeometry x="150" y="240" width="120" height="40" as="geometry" />
        </mxCell>
        <mxCell id="rpmEFAIcFxhYf_J9Vj70-20" value="" style="endArrow=none;html=1;rounded=0;entryX=0.5;entryY=1;entryDx=0;entryDy=0;" edge="1" parent="rpmEFAIcFxhYf_J9Vj70-11" target="rpmEFAIcFxhYf_J9Vj70-14">
          <mxGeometry width="50" height="50" relative="1" as="geometry">
            <mxPoint x="270" y="250" as="sourcePoint" />
            <mxPoint x="280" y="190" as="targetPoint" />
            <Array as="points">
              <mxPoint x="300" y="250" />
              <mxPoint x="300" y="230" />
            </Array>
          </mxGeometry>
        </mxCell>
        <mxCell id="rpmEFAIcFxhYf_J9Vj70-22" value="" style="endArrow=none;html=1;rounded=0;exitX=0;exitY=0.5;exitDx=0;exitDy=0;" edge="1" parent="rpmEFAIcFxhYf_J9Vj70-11" source="rpmEFAIcFxhYf_J9Vj70-19">
          <mxGeometry width="50" height="50" relative="1" as="geometry">
            <mxPoint x="50" y="240" as="sourcePoint" />
            <mxPoint x="100" y="190" as="targetPoint" />
            <Array as="points">
              <mxPoint x="140" y="260" />
              <mxPoint x="100" y="260" />
              <mxPoint x="100" y="230" />
            </Array>
          </mxGeometry>
        </mxCell>
        <mxCell id="rpmEFAIcFxhYf_J9Vj70-33" value="Show results from backend" style="rounded=0;whiteSpace=wrap;html=1;" vertex="1" parent="rpmEFAIcFxhYf_J9Vj70-11">
          <mxGeometry x="150" y="340" width="130" height="50" as="geometry" />
        </mxCell>
        <mxCell id="rpmEFAIcFxhYf_J9Vj70-23" value="" style="endArrow=none;html=1;rounded=0;" edge="1" parent="1" source="MuY1nDVodc8Vqoouy3pU-1">
          <mxGeometry width="50" height="50" relative="1" as="geometry">
            <mxPoint x="-130" y="520" as="sourcePoint" />
            <mxPoint x="-20" y="570" as="targetPoint" />
          </mxGeometry>
        </mxCell>
        <mxCell id="rpmEFAIcFxhYf_J9Vj70-27" value="" style="endArrow=none;html=1;rounded=0;" edge="1" parent="1" source="MuY1nDVodc8Vqoouy3pU-1">
          <mxGeometry width="50" height="50" relative="1" as="geometry">
            <mxPoint x="280" y="650" as="sourcePoint" />
            <mxPoint x="320" y="570" as="targetPoint" />
          </mxGeometry>
        </mxCell>
        <mxCell id="rpmEFAIcFxhYf_J9Vj70-34" value="" style="endArrow=none;html=1;rounded=0;" edge="1" parent="1">
          <mxGeometry width="50" height="50" relative="1" as="geometry">
            <mxPoint x="100" y="440" as="sourcePoint" />
            <mxPoint x="200" y="440" as="targetPoint" />
          </mxGeometry>
        </mxCell>
      </root>
    </mxGraphModel>
  </diagram>
</mxfile>
